<?xml version="1.0" encoding="utf-8"?>
<!-- Generator: Adobe Illustrator 16.0.4, SVG Export Plug-In . SVG Version: 6.00 Build 0)  -->
<!DOCTYPE svg PUBLIC "-//W3C//DTD SVG 1.1//EN" "http://www.w3.org/Graphics/SVG/1.1/DTD/svg11.dtd">
<svg version="1.1" id="Layer_1" xmlns="http://www.w3.org/2000/svg" xmlns:xlink="http://www.w3.org/1999/xlink" x="0px" y="0px"
	 width="148.09px" height="134.189px" viewBox="0 0 148.09 134.189" enable-background="new 0 0 148.09 134.189"
	 xml:space="preserve">
<title>HelloFresh_Logo</title>
<g id="Outline" display="none">
	<path display="inline" fill="#FFFFFF" d="M143.708,23.408c-2.287-3.78-8.156-5.671-13.429-7.561
		c-9.947-3.681-10.843-5.073-15.717-7.262c-5.57-2.984-11.142-5.173-16.513-6.466c-11.639-2.885-20.69-2.984-27.554-1.989
		C52.988,2.618,35.083,12.366,23.047,25.695c-2.686,3.084-5.173,5.969-7.361,9.351C9.618,44.297,5.241,55.836,4.147,67.077
		C3.55,73.841,4.843,79.909,2.356,87.171c-2.288,6.465-3.481,12.932-0.896,19.496c1.194,3.184,3.084,5.77,6.963,8.256
		c5.272,3.283,10.644,3.283,15.816,5.67c1.393,0.598,8.256,5.074,11.937,6.566c4.277,1.789,7.361,2.686,9.848,3.281
		c5.869,1.492,12.235,2.189,19,2.189c9.847-0.1,20.691-1.891,32.329-7.361c8.754-4.078,18.204-10.346,25.665-18.004
		c3.779-3.781,6.365-7.561,8.653-10.943c2.885-4.277,5.272-8.951,6.964-13.131c2.287-5.471,3.779-11.041,4.774-16.312
		c1.591-8.854,1.591-17.11,1.591-22.979c0-4.974,1.194-9.151,0.896-13.429C145.897,28.182,145.3,26.094,143.708,23.408z"/>
</g>
<circle fill="#FF9797" cx="74.045" cy="66.385" r="65.385"/>
</svg>
